<?xml version="1.0" encoding="utf-8"?>
<svg viewBox="0 0 500 500" xmlns="http://www.w3.org/2000/svg">
  <g id="Layer_x0020_1" transform="matrix(0.309098, 0, 0, 0.309098, -66.569786, -84.001266)" style="">
    <g id="_360337552">
      <g>
        <path class="fil0" d="M794 416l459 0c42,0 81,17 109,45 28,28 45,66 45,109l0 85 -767 0 0 -85c0,-42 17,-81 45,-109 28,-28 66,-45 109,-45z" style="fill: rgb(38, 50, 56);"/>
        <path class="fil1" d="M1408 640l153 0 150 0c23,0 43,9 58,24 15,15 24,35 24,58l0 828c0,23 -9,43 -24,58 -15,15 -35,24 -58,24l-1372 0c-23,0 -43,-9 -58,-24 -15,-15 -24,-35 -24,-58l0 -828c0,-23 9,-43 24,-58 15,-15 35,-24 58,-24l259 0 44 0 767 0z" style="fill: rgb(55, 71, 79);"/>
        <polygon class="fil2" points="1792,880 1792,1328 256,1328 256,880 " style="fill: rgb(18, 33, 41);"/>
        <path class="fil0" d="M1024 704c115,0 219,47 294,122 75,75 122,179 122,294 0,115 -47,219 -122,294 -75,75 -179,122 -294,122 -115,0 -219,-47 -294,-122 -75,-75 -122,-179 -122,-294 0,-115 47,-219 122,-294 75,-75 179,-122 294,-122z" style="fill: rgb(38, 50, 56);"/>
        <path class="fil3" d="M1273 871c-64,-64 -152,-103 -249,-103 -97,0 -185,39 -249,103 -64,64 -103,152 -103,249 0,97 39,185 103,249 64,64 152,103 249,103 97,0 185,-39 249,-103 64,-64 103,-152 103,-249 0,-97 -39,-185 -103,-249z" style="fill: rgb(144, 164, 174);"/>
        <path class="fil4" d="M1134 936c30,35 -112,9 -198,81 -87,72 -86,216 -115,181 -30,-35 -37,-187 50,-259 87,-72 234,-38 264,-3z" style="fill: rgb(236, 239, 241);"/>
        <path class="fil5" d="M414 610l153 0c9,0 16,7 16,16l0 16 -185 0 0 -16c0,-9 7,-16 16,-16z" style="fill: rgb(33, 33, 33);"/>
        <circle class="fil6" cx="1648" cy="752" r="38" style="fill: rgb(255, 152, 0);"/>
      </g>
      <path class="fil7" d="M794 416l459 0c42,0 81,17 109,45 5,5 10,11 15,17l-706 0c5,-6 9,-12 15,-17 28,-28 66,-45 109,-45z" style="fill: rgb(31, 42, 48);"/>
    </g>
    <rect class="fil8" width="2048" height="2048" style="fill: none;"/>
  </g>
</svg>